<svg width="17" height="17" viewBox="0 0 17 17" fill="none" xmlns="http://www.w3.org/2000/svg">
<path d="M8.13483 16.3636C12.6292 16.3636 16.2697 12.7681 16.2697 8.36365C16.2697 3.95915 12.6292 0.363647 8.13483 0.363647C3.64045 0.363647 0 3.95915 0 8.36365C0 12.7681 3.64045 16.3636 8.13483 16.3636Z" fill="#A6CE39"/>
<path d="M6.7417 5.17261H9.39338C11.9102 5.17261 12.9889 6.97036 12.9889 8.63328C12.9889 10.3861 11.6406 12.094 9.39338 12.094H6.7417V5.17261ZM7.73046 11.1951H9.3035C11.5057 11.1951 12.0001 9.48721 12.0001 8.63328C12.0001 7.24002 11.1462 6.07148 9.21361 6.07148H7.73046V11.1951Z" fill="white"/>
<path d="M5.39306 12.049H4.4043V5.17261H5.39306V9.03778V12.049Z" fill="white"/>
<path d="M5.52796 3.77937C5.52796 4.13892 5.2583 4.40858 4.89875 4.40858C4.53919 4.40858 4.26953 4.13892 4.26953 3.77937C4.26953 3.41982 4.53919 3.15015 4.89875 3.15015C5.2583 3.10521 5.52796 3.41982 5.52796 3.77937Z" fill="white"/>
</svg>
